<svg width="240" height="109" viewBox="0 0 240 109" fill="none" xmlns="http://www.w3.org/2000/svg">
<path d="M116.968 67.4766H102.772C100.23 67.4737 97.7926 66.4626 95.9951 64.6651C94.1975 62.8675 93.1864 60.4304 93.1836 57.8883V31.8318C93.1864 29.2897 94.1975 26.8526 95.9951 25.0551C97.7926 23.2575 100.23 22.2465 102.772 22.2437H116.965C119.507 22.2465 121.944 23.2575 123.741 25.0551C125.539 26.8526 126.55 29.2897 126.553 31.8318V57.8883C126.549 60.4295 125.538 62.8656 123.742 64.6628C121.945 66.46 119.509 67.4718 116.968 67.4766V67.4766ZM102.775 29.9107C102.267 29.9107 101.779 30.1127 101.419 30.4723C101.06 30.8319 100.858 31.3197 100.858 31.8283V57.8847C100.859 58.393 101.061 58.8802 101.42 59.2396C101.78 59.599 102.267 59.8015 102.775 59.8024H116.968C117.476 59.8015 117.964 59.599 118.323 59.2396C118.683 58.8802 118.885 58.393 118.886 57.8847V31.8283C118.885 31.3199 118.683 30.8328 118.323 30.4733C117.964 30.1139 117.476 29.9116 116.968 29.9107H102.775Z" fill="#292728"/>
<path d="M89.3988 50.532V41.1334C89.395 38.5919 88.3835 36.1557 86.5861 34.359C84.7886 32.5622 82.352 31.5515 79.8105 31.5487H65.6178C63.0763 31.5515 60.6397 32.5622 58.8423 34.359C57.0448 36.1557 56.0333 38.5919 56.0295 41.1334V61.6086V67.1934C56.0291 68.4527 56.2768 69.6998 56.7584 70.8633C57.2401 72.0268 57.9464 73.0839 58.8368 73.9744C59.7273 74.8648 60.7845 75.5711 61.948 76.0528C63.1115 76.5345 64.3585 76.7822 65.6178 76.7817H79.8105C82.3526 76.7788 84.7898 75.7677 86.5873 73.9702C88.3848 72.1727 89.3959 69.7355 89.3988 67.1934V59.9163C89.3959 57.3742 88.3848 54.9371 86.5873 53.1396C84.7898 51.342 82.3526 50.331 79.8105 50.3282H65.6178C64.9737 50.3285 64.3313 50.3931 63.7001 50.5213V41.1334C63.7011 40.6251 63.9034 40.1379 64.2628 39.7785C64.6223 39.419 65.1095 39.2167 65.6178 39.2158H79.8105C80.3188 39.2167 80.8061 39.419 81.1655 39.7785C81.5249 40.1379 81.7272 40.6251 81.7282 41.1334V46.618C84.6458 47.0439 87.3418 48.4195 89.3988 50.532V50.532ZM63.7001 59.9163C63.7011 59.408 63.9034 58.9208 64.2628 58.5614C64.6223 58.202 65.1095 57.9997 65.6178 57.9987H79.8105C80.3188 57.9997 80.8061 58.202 81.1655 58.5614C81.5249 58.9208 81.7272 59.408 81.7282 59.9163V67.1934C81.7272 67.7017 81.5249 68.1889 81.1655 68.5483C80.8061 68.9078 80.3188 69.1102 79.8105 69.1111H65.6178C65.2697 69.1105 64.9283 69.0157 64.6298 68.8368C64.3312 68.658 64.0866 68.4016 63.922 68.095C63.775 67.8186 63.6988 67.5101 63.7001 67.197V59.9163Z" fill="#292728"/>
<path d="M52.2429 41.1334C52.2392 38.5919 51.2276 36.1557 49.4302 34.359C47.6328 32.5622 45.1962 31.5515 42.6547 31.5487H28.4584C25.9169 31.5515 23.4803 32.5622 21.6829 34.359C19.8854 36.1557 18.8739 38.5919 18.8701 41.1334V46.4999H26.5407V41.1334C26.5417 40.6251 26.744 40.1379 27.1034 39.7785C27.4629 39.4191 27.9501 39.2167 28.4584 39.2158H42.6654C43.1737 39.2167 43.6609 39.4191 44.0204 39.7785C44.3798 40.1379 44.5821 40.6251 44.5831 41.1334V48.4069C44.5821 48.9133 44.3813 49.3989 44.0242 49.7581C43.6671 50.1172 43.1826 50.3208 42.6762 50.3246H26.5407V57.9952H42.6404C43.1487 57.9961 43.6359 58.1984 43.9953 58.5578C44.3547 58.9173 44.5571 59.4045 44.558 59.9128V67.1898C44.5571 67.6981 44.3547 68.1853 43.9953 68.5448C43.6359 68.9042 43.1487 69.1066 42.6404 69.1075H28.4584C27.9501 69.1066 27.4629 68.9042 27.1034 68.5448C26.744 68.1853 26.5417 67.6981 26.5407 67.1898V61.8233H18.8701V67.1898C18.873 69.7319 19.8841 72.1691 21.6816 73.9666C23.4791 75.7641 25.9163 76.7753 28.4584 76.7781H42.6654C45.2075 76.7753 47.6447 75.7641 49.4422 73.9666C51.2397 72.1691 52.2508 69.7319 52.2537 67.1898V59.9128C52.2545 57.8369 51.5788 55.8173 50.3289 54.1599C51.5792 52.5027 52.255 50.4829 52.2537 48.4069L52.2429 41.1334Z" fill="#292728"/>
<path d="M102.684 71.2713C100.71 71.2634 98.7633 70.8161 96.9843 69.9618C93.6863 78.9229 87.6623 86.6247 79.7595 91.984C71.8567 97.3434 62.4727 100.091 52.9273 99.8394C43.382 99.5882 34.1555 96.3512 26.5455 90.5835C18.9355 84.8159 13.325 76.8079 10.5029 67.6858C7.68085 58.5637 7.78927 48.7863 10.8129 39.729C13.8366 30.6717 19.6233 22.7901 27.3593 17.1926C35.0953 11.5952 44.3913 8.56352 53.9399 8.52403C63.4885 8.48453 72.8093 11.4391 80.5913 16.9724V16.9724L71.8295 25.33L95.2599 25.8702L95.8144 2.44699L86.8701 10.9869C77.7293 4.06371 66.6271 0.219971 55.1623 0.00915929C43.6974 -0.201653 32.4615 3.23138 23.0722 9.81387C13.683 16.3964 6.62495 25.7887 2.91437 36.6385C-0.796206 47.4883 -0.967867 59.2358 2.42411 70.1894C5.81609 81.143 12.5967 90.7376 21.7896 97.5916C30.9825 104.446 42.1133 108.205 53.5794 108.33C65.0455 108.454 76.2553 104.936 85.5945 98.2831C94.9338 91.6299 101.921 82.1846 105.549 71.3071L102.684 71.2713Z" fill="#292728"/>
<path d="M157.505 59.0324H165.272L159.848 47.5122L150.189 68.4059H143.212L156.414 41.7162L163.033 39.9274L176.703 68.4059H169.727L167.973 64.6852H155.094L157.505 59.0324Z" fill="#292728"/>
<path d="M185.468 48.8683V62.503H195.879C199.529 62.503 201.428 58.3886 201.428 54.3458C201.428 50.4103 199.64 46.5464 195.879 46.5464H178.85L180.638 40.6432H196.667C204.394 40.6432 208.405 47.7628 208.405 54.7751C208.405 61.6443 204.573 68.4062 196.667 68.4062H178.85V50.6608L185.468 48.8683Z" fill="#292728"/>
<path d="M210.552 49.0866C210.552 44.8291 213.915 40.6432 220.498 40.6432H239.392L237.603 46.5464H220.57C218.53 46.5464 217.529 47.8344 217.529 49.0866C217.529 50.3388 218.566 51.591 220.57 51.591H230.158C236.637 51.591 240 55.7769 240 60.0344C240 64.1846 236.816 68.4062 230.158 68.4062H210.552L212.341 62.503H230.086C232.09 62.503 233.127 61.3224 233.127 60.0344C233.127 58.7464 232.126 57.4584 230.086 57.4584H220.498C213.808 57.4584 210.552 53.2725 210.552 49.0866Z" fill="#292728"/>
</svg>
